<?xml version="1.0" encoding="utf-8"?>
<!-- Generator: Adobe Illustrator 19.2.1, SVG Export Plug-In . SVG Version: 6.00 Build 0)  -->
<svg version="1.1" id="Layer_1" xmlns="http://www.w3.org/2000/svg" xmlns:xlink="http://www.w3.org/1999/xlink" x="0px" y="0px"
	 viewBox="0 0 15 18" style="enable-background:new 0 0 15 18;" xml:space="preserve">
<style type="text/css">
	.st0{fill:#777777;}
</style>
<g>
	<g>
		<path class="st0" d="M7.5,15C7.8,15,8,14.8,8,14.5v-6C8,8.2,7.8,8,7.5,8S7,8.2,7,8.5v6C7,14.8,7.2,15,7.5,15z M10.5,15
			c0.3,0,0.5-0.2,0.5-0.5v-6C11,8.2,10.8,8,10.5,8S10,8.2,10,8.5v6C10,14.8,10.2,15,10.5,15z M14,2h-4V1c0-0.6-0.4-1-1-1H6
			C5.4,0,5,0.4,5,1v1H1C0.4,2,0,2.4,0,3v3h1v10c0,1.1,0.9,2,2,2h9c1.1,0,2-0.9,2-2V6h1V3C15,2.4,14.6,2,14,2z M6,1.5
			C6,1.2,6.2,1,6.5,1h2C8.8,1,9,1.2,9,1.5V2H6V1.5z M13,16c0,0.6-0.4,1-1,1H3c-0.6,0-1-0.4-1-1V6h11V16z M14,5H1V3.5
			C1,3.2,1.2,3,1.5,3h12C13.8,3,14,3.2,14,3.5V5z M4.5,15C4.8,15,5,14.8,5,14.5v-6C5,8.2,4.8,8,4.5,8S4,8.2,4,8.5v6
			C4,14.8,4.2,15,4.5,15z"/>
	</g>
</g>
</svg>
