<?xml version="1.0" encoding="utf-8"?>
<!-- Generator: Adobe Illustrator 19.2.1, SVG Export Plug-In . SVG Version: 6.00 Build 0)  -->
<svg version="1.1" id="Layer_1" xmlns:sketch="http://www.bohemiancoding.com/sketch/ns"
	 xmlns="http://www.w3.org/2000/svg" xmlns:xlink="http://www.w3.org/1999/xlink" x="0px" y="0px" viewBox="0 0 41.8 41.9"
	 style="enable-background:new 0 0 41.8 41.9;" xml:space="preserve">
<style type="text/css">
	.st0{fill:#777777;}
</style>
<title>pen_pencil_edit_write</title>
<description>Created with Sketch (http://www.bohemiancoding.com/sketch)</description>
<path class="st0" d="M41.3,6.6l-2.9,2.9c-0.3,0.3-0.9,0.3-1.2,0l-4.8-4.8c-0.3-0.3-0.3-0.9,0-1.2l2.9-2.9c0.8-0.8,2-0.8,2.7,0
	l3.3,3.3C42,4.6,42,5.9,41.3,6.6z M36.2,11.5L20.4,27.3c-0.3,0.6-0.9,0.6-1.2,0.2l-4.8-4.8c-0.3-0.3-0.3-0.9,0-1.2L30.1,5.7
	c0.3-0.3,0.9-0.3,1.2,0l4.8,4.8C36.5,10.8,36.5,11.4,36.2,11.5z M17.7,29.5l-6.8,2.3h-0.1c-0.2,0-0.4,0-0.6-0.2
	C10,31.4,10,31.2,10,31v-0.1l2.3-6.9v-0.1c0-0.1,0.1-0.1,0.1-0.2c0.3-0.3,0.7-0.3,0.9,0l4.6,4.6c0.2,0.3,0.2,0.7,0,0.9
	c-0.1,0.1-0.1,0.1-0.2,0.1L17.7,29.5z M22.4,7.2h-18v30.3h30.3v-18c0-1.2,1-2.2,2.2-2.2s2.2,1,2.2,2.2v20.2c0,0.3-0.1,0.6-0.2,0.8
	c-0.3,0.8-1.1,1.3-2,1.3l0,0H2.2c-1.2,0-2.2-1-2.2-2.2V5.1c0-1.2,1-2.2,2.2-2.2h20.2c1.2,0,2.2,1,2.2,2.2
	C24.5,6.3,23.6,7.2,22.4,7.2z"/>
</svg>
