<svg id="Layer_1" data-name="Layer 1" xmlns="http://www.w3.org/2000/svg" viewBox="0 0 1125.52 178.9"><defs><style>.cls-1{fill:#232323;}.cls-2{fill:#f3b11c;}</style></defs><title>ESTL-foosball-logo</title><path class="cls-1" d="M14.45,69.58V39.77Q14.45,0,54.2,0V19.88q-19.88,0-19.87,19.87v34.8q0,9.94-9.94,14.91,9.94,5,9.94,14.91v34.78Q34.33,159,54.2,159v19.87q-39.76,0-39.76-39.76V109.33q0-9.94-14.91-9.94V79.51Q14.45,79.51,14.45,69.58Z" transform="translate(0.47 0)"/><path class="cls-1" d="M250,79.5V99.38q-14.91,0-14.91,9.94v29.82q0,39.75-39.76,39.76V159q19.87,0,19.87-19.87V104.35q0-9.94,9.94-14.91-9.94-5-9.94-14.91V39.76q0-19.87-19.87-19.87V0q39.76,0,39.76,39.76V69.57Q235.12,79.5,250,79.5Z" transform="translate(0.47 0)"/><path class="cls-2" d="M164,140.95a4.63,4.63,0,0,0,1.06-1.52c0.3-.91-0.61-2.13-0.76-2.43s-0.45-.76-0.61-1.06a3,3,0,0,1-.15-2.28,5.24,5.24,0,0,1,3.34-2.89c1.06-.45,2.28-0.76,3.34-1.22a15.47,15.47,0,0,0,4.86-4,53.23,53.23,0,0,0,7-11.57,35.78,35.78,0,0,0,2.58-6.69,24,24,0,0,0,.45-8.06,42.07,42.07,0,0,0-1.52-7.6c-0.76-2-2.13-3-4.38-2.58a36.17,36.17,0,0,1-4,.76c-1.22.3-2.58,0.45-3.8,0.76a7,7,0,0,0-4.26,3.8c-1.06,2.13-2,4.38-3.19,6.54s-2.28,4.11-3.34,6.08-2.43,4-3.5,6.08a12.1,12.1,0,0,0-1.06,3,13,13,0,0,0,.61,3.5c0.76,2.43,1.52,4.86,2.28,7.45a23.5,23.5,0,0,0,1.06,3.5,9.31,9.31,0,0,0,.91,1.67c0.91,1.67,1.22,3.19.15,4.86-1.22,1.83-3.19,2.58-5,3.65-2.13,1.37-4.26,2.89-6.39,4.26s-4.71,2.58-7,3.8c-1.83.91-4.71,1.83-5.78,3.65a4.21,4.21,0,0,0-.15,1.37,3,3,0,0,1-.15,1.22c-0.3,1.52-2.43,2.13-3.8,2.43h-0.15a24,24,0,0,1-4.88.42c-3.65,0-6.54-.45-9.87-0.61a27.61,27.61,0,0,1-4.86-.45,61,61,0,0,1-8.36-2.13,9.29,9.29,0,0,1-3.5-1.67,1.65,1.65,0,0,1,.76-2.74c0.91-.3,2.58.45,3.34,0.76a78.32,78.32,0,0,0,9.87,2.43,50.67,50.67,0,0,0,7.3.91,28.16,28.16,0,0,0,3.8-.15,3.13,3.13,0,0,0,2.74-2.13c0.3-.91-0.76-1.83-1.52-2.43a8.34,8.34,0,0,0-2.28-1.22,68,68,0,0,1-9.27-5,23.19,23.19,0,0,0-4.71-2.43c-1.83-.61-4.11-0.45-6.54-0.61a64.72,64.72,0,0,1-12.46-2,4.23,4.23,0,0,0-3-.15c-1.06.45-2.13,1.83-1.37,3a17.21,17.21,0,0,0,1.52,2c0.45,0.45,1.52,1.52,1.37,2.28a1.86,1.86,0,0,1-2,1.67,9.1,9.1,0,0,1-2.44-1.1,59.14,59.14,0,0,1-12.92-11.71c-9-10.34-15.2-23-16.57-40.13A76.5,76.5,0,0,1,57,81a53.55,53.55,0,0,1,2.58-11.55C63.92,55.17,72,44.67,82.34,36.16a65,65,0,0,1,28.58-13.53,110.13,110.13,0,0,1,12.61-1.55,65.57,65.57,0,0,1,26.9,4.72A63.85,63.85,0,0,1,170,38a72.46,72.46,0,0,1,14.44,17.33A43.3,43.3,0,0,1,187,60.65a4.61,4.61,0,0,1,.45,3.19c-0.45,2.13-2,3.34-2.13,5.78a35.44,35.44,0,0,0,.66,5.46,5.7,5.7,0,0,0,.15,1.67c0.3,1.06,1.37,1.52,2,2a0.81,0.81,0,0,0,.45.3,6.58,6.58,0,0,0,.76-0.15,2.62,2.62,0,0,1,2,.76,3.5,3.5,0,0,1,1.22,2.58,49.81,49.81,0,0,1,.45,7.13,70.08,70.08,0,0,1-4.86,25.54c-4.11,11.1-10.64,19.16-19,26.31a65.89,65.89,0,0,1-16.27,10.34,20.28,20.28,0,0,1-2.74,1.06,1.6,1.6,0,0,1-1.67-1.51v-0.16c0-.91,1.06-1.52,1.67-2,0.91-.45,1.67-0.76,2.43-1.22a68,68,0,0,0,9.12-5.32,19.8,19.8,0,0,0,2.29-1.49h0v0ZM155.6,36.08c0,0.61.91,1.37,1.22,1.83a30.3,30.3,0,0,0,6.39,5.93A31.43,31.43,0,0,0,167,46.08a4.47,4.47,0,0,0,2.43.61,2.19,2.19,0,0,0,1.06-1.52,3.19,3.19,0,0,0-1.22-1.67A42.75,42.75,0,0,0,161,36.81a12.61,12.61,0,0,0-3.65-2.13,1.37,1.37,0,0,0-1.82,1.4h0ZM107,31.32a1.48,1.48,0,0,0-1.67-1.06A16.53,16.53,0,0,0,100,31.78a45.81,45.81,0,0,0-4.71,2.43A55.65,55.65,0,0,0,79.15,46.68a44.84,44.84,0,0,0-4.71,5.93,3.07,3.07,0,0,0-.61,2,3.29,3.29,0,0,0,1.83,1.67,6.4,6.4,0,0,0,4.71-.91,43,43,0,0,0,4.26-3,85.19,85.19,0,0,1,9.27-5.78c0.76-.45,1.67-0.76,2.43-1.22a14.12,14.12,0,0,0,5.48-4.86c0.91-1.52,1.83-3.19,2.89-4.71,0.45-.76,1.06-1.52,1.52-2.28a22.27,22.27,0,0,0,.75-2.13h0Zm16-.61a25.2,25.2,0,0,0-4.86.61c-2.74.61-4.26,2.43-5.93,4.56-0.91,1.06-1.67,2.13-2.43,3.19a25,25,0,0,0-2.13,3.34,3.7,3.7,0,0,0,.3,3.34,14.44,14.44,0,0,0,2.43,2.89c2,2,4,3.8,5.93,5.78,1.52,1.67,3.65,4.11,5.93,4.86a8.16,8.16,0,0,0,2.74.15c1.67-.15,3.19,0,4.86,0a48.5,48.5,0,0,1,7.45.45,2.24,2.24,0,0,1,1.71,2.9c-0.45,2.13-3.8,1.67-5.48,1.83-1.83,0-9.58,1.22-10.79,2.28a18.24,18.24,0,0,0-3.34,3.5c-2,3.19-3.65,6.54-5.48,9.87a43.76,43.76,0,0,0-3.65,7.6c-0.76,2.13-1.37,4.26-3.65,5.32a6.3,6.3,0,0,1-4.11.3c-2.28-.45-4.56-0.45-6.84-0.76s-4.71-.45-7-0.61C87,92,83.8,91.35,82.12,91.81A6.52,6.52,0,0,0,79,95a31.4,31.4,0,0,0-2.28,5.17c-0.76,1.83-1.37,3.65-2,5.48a11.19,11.19,0,0,0-.45,5.93,21.27,21.27,0,0,0,2.28,5,87.07,87.07,0,0,0,5.75,9.5c2,2.89,4.26,5.48,7.6,6.69a39.3,39.3,0,0,0,6.1,1.31,47.26,47.26,0,0,0,6.69.91c1.67,0.15,4.38.45,5.93-.45,2.89-1.67,4.38-5.62,5.78-8.51a53.8,53.8,0,0,0,2.43-5.17,6.83,6.83,0,0,0,.45-5.17c-0.61-1.67-1.37-3.19-2.13-4.86-2.13-4.26-3.5-5.78-5.62-9.87a7.37,7.37,0,0,1-1.22-3.19c-0.15-2,1.52-2.43,3-1.06a13.29,13.29,0,0,1,1.22,1.52c1.37,2.13,2,2.74,3.19,4.86a74.14,74.14,0,0,0,4.71,7.3,9.07,9.07,0,0,0,5,3c2,0.61,5.62.45,7.75,0.3,2.74-.15,5.62-0.15,8.36-0.3,1.37-.15,2.74-0.15,4.11-0.3a23.6,23.6,0,0,0,3.19-.61,9.16,9.16,0,0,0,4-3.65,61.56,61.56,0,0,0,3.19-5.32,63.56,63.56,0,0,0,2.89-5.78c0.89-2,1.83-3.8,2.58-5.93a11.84,11.84,0,0,0,.61-3.19,11.84,11.84,0,0,0-.61-3.19,31.14,31.14,0,0,0-2.89-5.48l-3.19-5.48a57.52,57.52,0,0,0-3.34-5c-0.76-.91-1.67-1.83-2.58-2.74-1.22-1.37-3.65-1.83-4.11-2.58a2.35,2.35,0,0,1-.15-2.43c0.3-.91,3-1.67,4.11-3,0.61-.76,1.22-1.52,1.83-2.43a38.53,38.53,0,0,0,3-5.48c0.91-1.67,2.28-3.65,1.67-5.62-0.45-1.83-2-3.34-3.34-4.56A50.39,50.39,0,0,0,143.1,33,14.36,14.36,0,0,0,137,31a27.17,27.17,0,0,0-8.51-.61c-1.83.15-3.8,0.15-5.62,0.3H123Zm36,20.37c-1.52,2.28-2.74,4.86-4.11,7.13a8.61,8.61,0,0,0-1.22,3.8,9.48,9.48,0,0,0,2,4.38,130,130,0,0,1,8.51,13.83,24.11,24.11,0,0,0,1.22,2.13c0.91,1.06,2,2.43,3.34,2.74a6.28,6.28,0,0,0,2.89-.3c2-.45,4.11-0.91,6.08-1.22,2.13-.45,4-1.37,4.26-3.8a41,41,0,0,0-.3-6.08,38,38,0,0,0-.91-5.78c-0.61-2.89-1.52-7-3.5-9.27-2.89-3.5-7-6.39-11-9-1.37-.91-2.58-1.67-4.26-1.52a2.16,2.16,0,0,0-.91.3,17.5,17.5,0,0,0-2.14,2.66H159ZM70,62a8.85,8.85,0,0,0-2.74,3.5,53.26,53.26,0,0,0-4.85,16.56,57.63,57.63,0,0,0-.15,13.53,17.74,17.74,0,0,0,1.22,5.62,7,7,0,0,0,2.74,3.19c1.22,0.61,2.28-.91,2.74-1.83,0.61-1.37,1.06-2.74,1.52-4.11a66,66,0,0,1,3.8-8.22,8.85,8.85,0,0,0,1.37-3.8,27.71,27.71,0,0,0-.45-5,91,91,0,0,1-.76-11.1V67.78c0-1.06.15-2.74-.3-3.65a3.83,3.83,0,0,0-3.5-2.28c0-.15-0.3,0-0.61.15h0Zm-4.38,50c0,0.3.3,1.22,0.3,1.52a9.32,9.32,0,0,0,.76,1.83,66.36,66.36,0,0,0,12.46,18.55c0.3,0.45,1.52,1.67,2.13,1.67a1.37,1.37,0,0,0,.91-0.91,4.83,4.83,0,0,0-.45-1.37,29.88,29.88,0,0,0-3-4.56c-2.3-3.16-4.27-6.36-6.25-9.73-0.61-1.06-1.22-2.28-1.83-3.5a13.11,13.11,0,0,0-2.13-2.74c-0.3-.3-1.52-1.67-2.13-1.67a10.65,10.65,0,0,1-.76.94v0Z" transform="translate(0.47 0)"/><path d="M348.09,48.09V60.33H311.43V83.27h28.88V95.11H311.43V118.5h36.66v12.3H295.93V48.09h52.16Z" transform="translate(0.47 0)"/><path d="M411.47,63.13A4.25,4.25,0,0,1,410,64.91a3.67,3.67,0,0,1-2,.51,5,5,0,0,1-2.57-.89q-1.43-.89-3.37-2a27.63,27.63,0,0,0-4.55-2,19.12,19.12,0,0,0-6.15-.89,18.07,18.07,0,0,0-5.58.77,11.81,11.81,0,0,0-4,2.15,8.57,8.57,0,0,0-2.43,3.29,10.79,10.79,0,0,0-.8,4.2A7.31,7.31,0,0,0,380.21,75a13.6,13.6,0,0,0,4.32,3.32,39.94,39.94,0,0,0,6.12,2.46q3.43,1.09,7,2.32a67.59,67.59,0,0,1,7,2.86A24.25,24.25,0,0,1,410.78,90a18.66,18.66,0,0,1,4.32,6.09,21.15,21.15,0,0,1,1.63,8.75,28.52,28.52,0,0,1-1.92,10.5,24.22,24.22,0,0,1-5.61,8.52,26.39,26.39,0,0,1-9,5.72A33.17,33.17,0,0,1,388,131.71a39.21,39.21,0,0,1-7.78-.77,40.87,40.87,0,0,1-7.35-2.2,38.18,38.18,0,0,1-6.58-3.43,32.32,32.32,0,0,1-5.46-4.46l4.46-7.38a5.69,5.69,0,0,1,1.52-1.34,3.7,3.7,0,0,1,2-.54,5.46,5.46,0,0,1,3.09,1.17q1.66,1.17,3.92,2.6a30,30,0,0,0,5.32,2.6,20.55,20.55,0,0,0,7.35,1.17q6.58,0,10.18-3.12t3.6-9a8.31,8.31,0,0,0-1.63-5.32,13.18,13.18,0,0,0-4.32-3.46,32.39,32.39,0,0,0-6.12-2.37q-3.43-1-7-2.12a60,60,0,0,1-7-2.75,22.57,22.57,0,0,1-6.12-4.18,19,19,0,0,1-4.32-6.43,24.52,24.52,0,0,1-1.63-9.52,22.76,22.76,0,0,1,7.06-16.42,26,26,0,0,1,8.49-5.32,30.93,30.93,0,0,1,11.5-2,38.59,38.59,0,0,1,13.5,2.29,30.47,30.47,0,0,1,10.52,6.41Z" transform="translate(0.47 0)"/><path d="M492.52,48.09V60.73H467.64V130.8H452.25V60.73h-25V48.09h65.26Z" transform="translate(0.47 0)"/><path d="M523.4,118.1h33.12v12.7H508V48.09H523.4v70Z" transform="translate(0.47 0)"/><path d="M626.07,54.55h-39l-4.23,34.26h33.8L616,93.56H582.31l-4.58,37.24H572l10-80.93H626.7Z" transform="translate(0.47 0)"/><path d="M710.09,84.13A57.63,57.63,0,0,1,707,103.57a44.94,44.94,0,0,1-8.67,15,38.76,38.76,0,0,1-29.46,13.1A31.19,31.19,0,0,1,656,129.11a27.67,27.67,0,0,1-9.75-7.18,32.41,32.41,0,0,1-6.21-11.1,44.64,44.64,0,0,1-2.17-14.3,57.22,57.22,0,0,1,3.15-19.42,45.85,45.85,0,0,1,8.67-15A38.4,38.4,0,0,1,679,48.95a31.54,31.54,0,0,1,12.9,2.54,27.62,27.62,0,0,1,9.78,7.18,32.4,32.4,0,0,1,6.21,11.13A44.91,44.91,0,0,1,710.09,84.13Zm-5.89.11a41.5,41.5,0,0,0-1.8-12.67A27.7,27.7,0,0,0,697.22,62a22.84,22.84,0,0,0-8.15-6.12A25.76,25.76,0,0,0,678.4,53.7a31.67,31.67,0,0,0-24.79,11.5,40.58,40.58,0,0,0-7.29,13.44,55.9,55.9,0,0,0-2.63,17.73A40.87,40.87,0,0,0,645.52,109a27.73,27.73,0,0,0,5.21,9.58,23,23,0,0,0,8.12,6.09,25.54,25.54,0,0,0,10.64,2.15,32.6,32.6,0,0,0,13.9-2.95,31.39,31.39,0,0,0,11-8.49A40.54,40.54,0,0,0,701.6,102,56.37,56.37,0,0,0,704.2,84.24Z" transform="translate(0.47 0)"/><path d="M799.6,84.13a57.63,57.63,0,0,1-3.12,19.45,44.94,44.94,0,0,1-8.67,15,38.76,38.76,0,0,1-29.46,13.1,31.19,31.19,0,0,1-12.81-2.55,27.67,27.67,0,0,1-9.75-7.18,32.41,32.41,0,0,1-6.21-11.1,44.64,44.64,0,0,1-2.17-14.3,57.22,57.22,0,0,1,3.15-19.42,45.85,45.85,0,0,1,8.67-15,38.4,38.4,0,0,1,29.31-13.13,31.54,31.54,0,0,1,12.9,2.54,27.62,27.62,0,0,1,9.78,7.18,32.4,32.4,0,0,1,6.21,11.13A44.91,44.91,0,0,1,799.6,84.13Zm-5.89.11a41.5,41.5,0,0,0-1.8-12.67A27.7,27.7,0,0,0,786.74,62a22.84,22.84,0,0,0-8.15-6.12,25.76,25.76,0,0,0-10.67-2.15,31.67,31.67,0,0,0-24.79,11.5,40.58,40.58,0,0,0-7.29,13.44,55.9,55.9,0,0,0-2.63,17.73A40.87,40.87,0,0,0,735,109a27.73,27.73,0,0,0,5.21,9.58,23,23,0,0,0,8.12,6.09A25.54,25.54,0,0,0,759,126.85a32.6,32.6,0,0,0,13.9-2.95,31.39,31.39,0,0,0,11-8.49A40.54,40.54,0,0,0,791.11,102,56.37,56.37,0,0,0,793.71,84.24Z" transform="translate(0.47 0)"/><path d="M861.84,59.65a1.78,1.78,0,0,1-1.49,1,2.6,2.6,0,0,1-1.66-1.09A19.41,19.41,0,0,0,856,57.16a19.08,19.08,0,0,0-4.35-2.37A17.73,17.73,0,0,0,845,53.7a20.21,20.21,0,0,0-7.75,1.4,17,17,0,0,0-5.78,3.83,16.66,16.66,0,0,0-3.63,5.66,18.81,18.81,0,0,0-1.26,6.89A11.18,11.18,0,0,0,828,77.35a13.79,13.79,0,0,0,3.75,4.06A25.71,25.71,0,0,0,837,84.33q2.95,1.23,6.06,2.4t6.06,2.57a23.32,23.32,0,0,1,5.26,3.4,14.73,14.73,0,0,1,5.18,11.9A29,29,0,0,1,857.72,115a25.21,25.21,0,0,1-14,14.5,28.14,28.14,0,0,1-11.27,2.17,24.87,24.87,0,0,1-12.35-2.83,25.45,25.45,0,0,1-8.47-7.75l1.89-2.46a2.31,2.31,0,0,1,1.6-.8,1.79,1.79,0,0,1,1.17.69l1.6,1.69q0.94,1,2.23,2.17a16,16,0,0,0,3.12,2.17,20.43,20.43,0,0,0,4.26,1.69,20.8,20.8,0,0,0,5.63.69,22.31,22.31,0,0,0,8.69-1.63,19.26,19.26,0,0,0,10.84-11.21,23.35,23.35,0,0,0,1.46-8.32,11.31,11.31,0,0,0-1.43-5.92,13.49,13.49,0,0,0-3.75-4,23.8,23.8,0,0,0-5.26-2.8q-2.95-1.14-6-2.29t-6.06-2.52a21.85,21.85,0,0,1-5.29-3.4,15.22,15.22,0,0,1-3.72-5,16.76,16.76,0,0,1-1.4-7.24,24.52,24.52,0,0,1,1.66-8.92A22.5,22.5,0,0,1,835.3,50.89a25.82,25.82,0,0,1,10.29-1.94,23.12,23.12,0,0,1,10.24,2.14,21.51,21.51,0,0,1,7.61,6.26Z" transform="translate(0.47 0)"/><path d="M877.68,130.8l10-80.93h21.56a37.16,37.16,0,0,1,10.07,1.2,19.6,19.6,0,0,1,7,3.46A13.71,13.71,0,0,1,930.44,60a19.23,19.23,0,0,1,1.34,7.38A22.06,22.06,0,0,1,927,81.29a22.52,22.52,0,0,1-5.63,5,25.37,25.37,0,0,1-7.49,3.12Q921.72,90.7,925.9,95a15.5,15.5,0,0,1,4.18,11.24,25.92,25.92,0,0,1-1.92,10.15,21.13,21.13,0,0,1-5.55,7.75,25,25,0,0,1-8.84,4.92A37.56,37.56,0,0,1,902,130.8H877.68ZM888.15,92l-4.23,34.32h18.53q10.64,0,16.3-5.18t5.66-14.67a14.67,14.67,0,0,0-1.17-6,12.35,12.35,0,0,0-3.43-4.55A16,16,0,0,0,914.26,93a25.18,25.18,0,0,0-7.52-1H888.15Zm0.51-4.12h16a25.35,25.35,0,0,0,9.61-1.66,19.35,19.35,0,0,0,6.69-4.38,17.25,17.25,0,0,0,3.89-6.21,21.08,21.08,0,0,0,1.26-7.21q0-6.81-4.26-10.41t-13.13-3.6h-15.9Z" transform="translate(0.47 0)"/><path d="M1006.94,130.8h-4.35a1.87,1.87,0,0,1-1.29-.43,2.13,2.13,0,0,1-.66-1.06l-5.78-23.68H958.61l-11.55,23.68a2.56,2.56,0,0,1-.92,1.06,2.48,2.48,0,0,1-1.43.43h-4.35L980.8,49.86h5.61Zm-46.27-29.34H993.9l-10-41.18q-0.29-1-.54-2.17t-0.43-2.52q-0.11.34-.43,1.06t-0.66,1.46l-0.63,1.37q-0.29.63-.4,0.86Z" transform="translate(0.47 0)"/><path d="M1030.28,125.94h35.23l-0.63,4.86H1024l10-80.93h5.66Z" transform="translate(0.47 0)"/><path d="M1089.82,125.94h35.23l-0.63,4.86h-40.84l10-80.93h5.66Z" transform="translate(0.47 0)"/></svg>